<mxfile host="app.diagrams.net" modified="2024-06-17T07:20:14.224Z" agent="Mozilla/5.0 (Windows NT 10.0; Win64; x64) AppleWebKit/537.36 (KHTML, like Gecko) Chrome/126.0.0.0 Safari/537.36" etag="vnvJBeq6EGqeOk_DslkU" version="24.5.2" type="device">
  <diagram name="Page-1" id="xW-bHU2al_uvpoQPwyNc">
    <mxGraphModel dx="-1550" dy="622" grid="1" gridSize="10" guides="1" tooltips="1" connect="1" arrows="1" fold="1" page="1" pageScale="1" pageWidth="850" pageHeight="1100" math="0" shadow="0">
      <root>
        <mxCell id="0" />
        <mxCell id="1" parent="0" />
        <mxCell id="yNVoWuhnCR1HmCepwcBa-24" value="" style="strokeWidth=1;shadow=0;dashed=0;align=center;html=1;shape=mxgraph.mockup.containers.browserWindow;rSize=0;strokeColor=#666666;mainText=,;recursiveResize=0;rounded=0;labelBackgroundColor=none;fontFamily=Verdana;fontSize=12" vertex="1" parent="1">
          <mxGeometry x="2590" y="350" width="1050" height="1310" as="geometry" />
        </mxCell>
        <mxCell id="yNVoWuhnCR1HmCepwcBa-25" value="Page 1" style="strokeWidth=1;shadow=0;dashed=0;align=center;html=1;shape=mxgraph.mockup.containers.anchor;fontSize=17;fontColor=#666666;align=left;" vertex="1" parent="yNVoWuhnCR1HmCepwcBa-24">
          <mxGeometry x="60" y="12" width="110" height="26" as="geometry" />
        </mxCell>
        <mxCell id="yNVoWuhnCR1HmCepwcBa-26" value="https://www.default.com" style="strokeWidth=1;shadow=0;dashed=0;align=center;html=1;shape=mxgraph.mockup.containers.anchor;rSize=0;fontSize=17;fontColor=#666666;align=left;" vertex="1" parent="yNVoWuhnCR1HmCepwcBa-24">
          <mxGeometry x="130" y="60" width="250" height="26" as="geometry" />
        </mxCell>
        <mxCell id="yNVoWuhnCR1HmCepwcBa-27" value="" style="verticalLabelPosition=bottom;shadow=0;dashed=0;align=center;html=1;verticalAlign=top;strokeWidth=1;shape=mxgraph.mockup.graphics.simpleIcon;strokeColor=#999999;fillColor=#ffffff;rounded=0;labelBackgroundColor=none;fontFamily=Verdana;fontSize=12;fontColor=#000000;" vertex="1" parent="yNVoWuhnCR1HmCepwcBa-24">
          <mxGeometry y="100" width="1050" height="470" as="geometry" />
        </mxCell>
        <mxCell id="yNVoWuhnCR1HmCepwcBa-28" value="&lt;b&gt;&lt;font style=&quot;font-size: 46px;&quot;&gt;Pfadi MH&lt;/font&gt;&lt;/b&gt;" style="text;html=1;points=[];align=left;verticalAlign=top;spacingTop=-4;fontSize=30;fontFamily=Verdana" vertex="1" parent="yNVoWuhnCR1HmCepwcBa-24">
          <mxGeometry x="410" y="230" width="170" height="50" as="geometry" />
        </mxCell>
        <mxCell id="yNVoWuhnCR1HmCepwcBa-29" value="Lorem ipsum dolor sit amet, consectetur adipisicing elit, sed do eiusmod tempor incididunt ut labore et dolore magna aliqua. Ut enim ad minim veniam, quis nostrud exercitation ullamco laboris nisi ut aliquip ex ea commodo consequat. Duis aute irure dolor in reprehenderit in voluptate velit esse cillum dolore eu fugiat nulla pariatur. Excepteur sint occaecat cupidatat non proident, sunt in culpa qui officia deserunt mollit anim id est laborum.&#xa;Sed ut perspiciatis unde omnis iste natus error sit voluptatem accusantium doloremque laudantium, totam rem aperiam, eaque ipsa quae ab illo inventore veritatis et quasi architecto beatae vitae dicta sunt explicabo. Nemo enim ipsam voluptatem quia voluptas sit aspernatur aut odit aut fugit, sed quia consequuntur magni dolores eos qui ratione voluptatem sequi nesciunt. Neque porro quisquam est, qui dolorem ipsum quia dolor sit amet, consectetur, adipisci velit, sed quia non numquam eius modi tempora incidunt ut labore et dolore magnam aliquam quaerat voluptatem. Ut enim ad minima veniam, quis nostrum exercitationem ullam corporis suscipit laboriosam, nisi ut aliquid ex ea commodi consequatur? Quis autem vel eum iure reprehenderit qui in ea voluptate velit esse quam nihil molestiae consequatur, vel illum qui dolorem eum fugiat quo voluptas nulla pariatur?" style="text;spacingTop=-5;whiteSpace=wrap;html=1;align=left;fontSize=12;fontFamily=Helvetica;fillColor=none;strokeColor=none;rounded=0;shadow=1;labelBackgroundColor=none;" vertex="1" parent="yNVoWuhnCR1HmCepwcBa-24">
          <mxGeometry x="250" y="670" width="570" height="240" as="geometry" />
        </mxCell>
        <mxCell id="yNVoWuhnCR1HmCepwcBa-30" value="Wer sind mir?" style="text;html=1;points=[];align=left;verticalAlign=top;spacingTop=-4;fontSize=30;fontFamily=Verdana" vertex="1" parent="yNVoWuhnCR1HmCepwcBa-24">
          <mxGeometry x="250" y="610" width="340" height="50" as="geometry" />
        </mxCell>
        <mxCell id="yNVoWuhnCR1HmCepwcBa-31" value="" style="verticalLabelPosition=bottom;shadow=0;dashed=0;align=center;html=1;verticalAlign=top;strokeWidth=1;shape=mxgraph.mockup.markup.line;strokeColor=#999999;rounded=0;labelBackgroundColor=none;fillColor=#ffffff;fontFamily=Verdana;fontSize=12;fontColor=#000000;" vertex="1" parent="yNVoWuhnCR1HmCepwcBa-24">
          <mxGeometry y="910" width="1050" height="20" as="geometry" />
        </mxCell>
        <mxCell id="yNVoWuhnCR1HmCepwcBa-32" value="Gruppe finden" style="strokeWidth=1;shadow=0;dashed=0;align=center;html=1;shape=mxgraph.mockup.buttons.button;strokeColor=#666666;mainText=;buttonStyle=round;fontSize=17;fontStyle=0;fillColor=none;whiteSpace=wrap;rounded=0;labelBackgroundColor=none;" vertex="1" parent="yNVoWuhnCR1HmCepwcBa-24">
          <mxGeometry x="75" y="1180" width="190" height="30" as="geometry" />
        </mxCell>
        <mxCell id="yNVoWuhnCR1HmCepwcBa-33" value="Datum abmachen" style="strokeWidth=1;shadow=0;dashed=0;align=center;html=1;shape=mxgraph.mockup.buttons.button;strokeColor=#666666;mainText=;buttonStyle=round;fontSize=17;fontStyle=0;fillColor=none;whiteSpace=wrap;rounded=0;labelBackgroundColor=none;" vertex="1" parent="yNVoWuhnCR1HmCepwcBa-24">
          <mxGeometry x="315" y="1180" width="190" height="30" as="geometry" />
        </mxCell>
        <mxCell id="yNVoWuhnCR1HmCepwcBa-34" value="Vorbeikommen" style="strokeWidth=1;shadow=0;dashed=0;align=center;html=1;shape=mxgraph.mockup.buttons.button;strokeColor=#666666;mainText=;buttonStyle=round;fontSize=17;fontStyle=0;fillColor=none;whiteSpace=wrap;rounded=0;labelBackgroundColor=none;" vertex="1" parent="yNVoWuhnCR1HmCepwcBa-24">
          <mxGeometry x="555" y="1180" width="190" height="30" as="geometry" />
        </mxCell>
        <mxCell id="yNVoWuhnCR1HmCepwcBa-35" value="Anmelden" style="strokeWidth=1;shadow=0;dashed=0;align=center;html=1;shape=mxgraph.mockup.buttons.button;strokeColor=#666666;mainText=;buttonStyle=round;fontSize=17;fontStyle=0;fillColor=none;whiteSpace=wrap;rounded=0;labelBackgroundColor=none;" vertex="1" parent="yNVoWuhnCR1HmCepwcBa-24">
          <mxGeometry x="785" y="1180" width="190" height="30" as="geometry" />
        </mxCell>
        <mxCell id="yNVoWuhnCR1HmCepwcBa-36" value="" style="verticalLabelPosition=bottom;shadow=0;dashed=0;align=center;html=1;verticalAlign=top;strokeWidth=1;shape=mxgraph.mockup.graphics.simpleIcon;strokeColor=#999999;fillColor=#ffffff;rounded=0;labelBackgroundColor=none;fontFamily=Verdana;fontSize=12;fontColor=#000000;" vertex="1" parent="yNVoWuhnCR1HmCepwcBa-24">
          <mxGeometry x="107.5" y="1040" width="125" height="130" as="geometry" />
        </mxCell>
        <mxCell id="yNVoWuhnCR1HmCepwcBa-37" value="" style="verticalLabelPosition=bottom;shadow=0;dashed=0;align=center;html=1;verticalAlign=top;strokeWidth=1;shape=mxgraph.mockup.graphics.simpleIcon;strokeColor=#999999;fillColor=#ffffff;rounded=0;labelBackgroundColor=none;fontFamily=Verdana;fontSize=12;fontColor=#000000;" vertex="1" parent="yNVoWuhnCR1HmCepwcBa-24">
          <mxGeometry x="347.5" y="1040" width="125" height="130" as="geometry" />
        </mxCell>
        <mxCell id="yNVoWuhnCR1HmCepwcBa-38" value="" style="verticalLabelPosition=bottom;shadow=0;dashed=0;align=center;html=1;verticalAlign=top;strokeWidth=1;shape=mxgraph.mockup.graphics.simpleIcon;strokeColor=#999999;fillColor=#ffffff;rounded=0;labelBackgroundColor=none;fontFamily=Verdana;fontSize=12;fontColor=#000000;" vertex="1" parent="yNVoWuhnCR1HmCepwcBa-24">
          <mxGeometry x="587.5" y="1040" width="125" height="130" as="geometry" />
        </mxCell>
        <mxCell id="yNVoWuhnCR1HmCepwcBa-39" value="" style="verticalLabelPosition=bottom;shadow=0;dashed=0;align=center;html=1;verticalAlign=top;strokeWidth=1;shape=mxgraph.mockup.graphics.simpleIcon;strokeColor=#999999;fillColor=#ffffff;rounded=0;labelBackgroundColor=none;fontFamily=Verdana;fontSize=12;fontColor=#000000;" vertex="1" parent="yNVoWuhnCR1HmCepwcBa-24">
          <mxGeometry x="817.5" y="1040" width="125" height="130" as="geometry" />
        </mxCell>
        <mxCell id="yNVoWuhnCR1HmCepwcBa-40" value="" style="shape=flexArrow;endArrow=classic;html=1;rounded=0;entryX=-0.044;entryY=0.773;entryDx=0;entryDy=0;entryPerimeter=0;" edge="1" parent="yNVoWuhnCR1HmCepwcBa-24">
          <mxGeometry width="50" height="50" relative="1" as="geometry">
            <mxPoint x="255" y="1110" as="sourcePoint" />
            <mxPoint x="332" y="1110.4899999999998" as="targetPoint" />
          </mxGeometry>
        </mxCell>
        <mxCell id="yNVoWuhnCR1HmCepwcBa-41" value="" style="shape=flexArrow;endArrow=classic;html=1;rounded=0;entryX=-0.044;entryY=0.773;entryDx=0;entryDy=0;entryPerimeter=0;" edge="1" parent="yNVoWuhnCR1HmCepwcBa-24">
          <mxGeometry width="50" height="50" relative="1" as="geometry">
            <mxPoint x="491.5" y="1110" as="sourcePoint" />
            <mxPoint x="568.5" y="1110.4899999999998" as="targetPoint" />
          </mxGeometry>
        </mxCell>
        <mxCell id="yNVoWuhnCR1HmCepwcBa-42" value="" style="shape=flexArrow;endArrow=classic;html=1;rounded=0;entryX=-0.044;entryY=0.773;entryDx=0;entryDy=0;entryPerimeter=0;" edge="1" parent="yNVoWuhnCR1HmCepwcBa-24">
          <mxGeometry width="50" height="50" relative="1" as="geometry">
            <mxPoint x="725" y="1110" as="sourcePoint" />
            <mxPoint x="802" y="1110.4899999999998" as="targetPoint" />
          </mxGeometry>
        </mxCell>
        <mxCell id="yNVoWuhnCR1HmCepwcBa-44" value="Chum goluege" style="text;html=1;points=[];align=left;verticalAlign=top;spacingTop=-4;fontSize=30;fontFamily=Verdana" vertex="1" parent="yNVoWuhnCR1HmCepwcBa-24">
          <mxGeometry x="245" y="940" width="340" height="50" as="geometry" />
        </mxCell>
        <mxCell id="yNVoWuhnCR1HmCepwcBa-181" value="Copyright PfadiMH" style="text;html=1;align=center;verticalAlign=middle;whiteSpace=wrap;rounded=0;" vertex="1" parent="yNVoWuhnCR1HmCepwcBa-24">
          <mxGeometry x="435" y="1270" width="145" height="30" as="geometry" />
        </mxCell>
        <mxCell id="yNVoWuhnCR1HmCepwcBa-183" value="Logo" style="ellipse;whiteSpace=wrap;html=1;aspect=fixed;" vertex="1" parent="yNVoWuhnCR1HmCepwcBa-24">
          <mxGeometry x="495" y="110" width="40" height="40" as="geometry" />
        </mxCell>
        <mxCell id="yNVoWuhnCR1HmCepwcBa-184" value="Home" style="text;html=1;align=center;verticalAlign=middle;whiteSpace=wrap;rounded=0;" vertex="1" parent="yNVoWuhnCR1HmCepwcBa-24">
          <mxGeometry x="430" y="115" width="60" height="30" as="geometry" />
        </mxCell>
        <mxCell id="yNVoWuhnCR1HmCepwcBa-185" value="Gruppenübersicht" style="text;html=1;align=center;verticalAlign=middle;whiteSpace=wrap;rounded=0;" vertex="1" parent="yNVoWuhnCR1HmCepwcBa-24">
          <mxGeometry x="570" y="115" width="60" height="30" as="geometry" />
        </mxCell>
        <mxCell id="yNVoWuhnCR1HmCepwcBa-46" value="" style="strokeWidth=1;shadow=0;dashed=0;align=center;html=1;shape=mxgraph.mockup.containers.browserWindow;rSize=0;strokeColor=#666666;mainText=,;recursiveResize=0;rounded=0;labelBackgroundColor=none;fontFamily=Verdana;fontSize=12" vertex="1" parent="1">
          <mxGeometry x="3720" y="350" width="1180" height="1090" as="geometry" />
        </mxCell>
        <mxCell id="yNVoWuhnCR1HmCepwcBa-47" value="Page 1" style="strokeWidth=1;shadow=0;dashed=0;align=center;html=1;shape=mxgraph.mockup.containers.anchor;fontSize=17;fontColor=#666666;align=left;" vertex="1" parent="yNVoWuhnCR1HmCepwcBa-46">
          <mxGeometry x="60" y="12" width="110" height="26" as="geometry" />
        </mxCell>
        <mxCell id="yNVoWuhnCR1HmCepwcBa-48" value="https://www.default.com" style="strokeWidth=1;shadow=0;dashed=0;align=center;html=1;shape=mxgraph.mockup.containers.anchor;rSize=0;fontSize=17;fontColor=#666666;align=left;" vertex="1" parent="yNVoWuhnCR1HmCepwcBa-46">
          <mxGeometry x="130" y="60" width="250" height="26" as="geometry" />
        </mxCell>
        <mxCell id="yNVoWuhnCR1HmCepwcBa-49" value="" style="verticalLabelPosition=bottom;shadow=0;dashed=0;align=center;html=1;verticalAlign=top;strokeWidth=1;shape=mxgraph.mockup.graphics.simpleIcon;strokeColor=#999999;fillColor=#ffffff;rounded=0;labelBackgroundColor=none;fontFamily=Verdana;fontSize=12;fontColor=#000000;" vertex="1" parent="yNVoWuhnCR1HmCepwcBa-46">
          <mxGeometry y="110" width="1090" height="210" as="geometry" />
        </mxCell>
        <mxCell id="yNVoWuhnCR1HmCepwcBa-50" value="&lt;font style=&quot;font-size: 45px;&quot;&gt;Gruppen&lt;/font&gt;" style="text;html=1;points=[];align=left;verticalAlign=top;spacingTop=-4;fontSize=30;fontFamily=Verdana" vertex="1" parent="yNVoWuhnCR1HmCepwcBa-46">
          <mxGeometry x="500" y="200" width="170" height="50" as="geometry" />
        </mxCell>
        <mxCell id="yNVoWuhnCR1HmCepwcBa-52" value="" style="group" vertex="1" connectable="0" parent="yNVoWuhnCR1HmCepwcBa-46">
          <mxGeometry x="160" y="370" width="850" height="200" as="geometry" />
        </mxCell>
        <mxCell id="yNVoWuhnCR1HmCepwcBa-53" value="" style="group" vertex="1" connectable="0" parent="yNVoWuhnCR1HmCepwcBa-52">
          <mxGeometry x="580" width="270" height="200" as="geometry" />
        </mxCell>
        <mxCell id="yNVoWuhnCR1HmCepwcBa-54" value="Gruppe" style="strokeWidth=1;shadow=0;dashed=0;align=center;html=1;shape=mxgraph.mockup.buttons.button;strokeColor=#666666;mainText=;buttonStyle=round;fontSize=17;fontStyle=0;fillColor=none;whiteSpace=wrap;rounded=0;labelBackgroundColor=none;" vertex="1" parent="yNVoWuhnCR1HmCepwcBa-53">
          <mxGeometry width="270" height="200" as="geometry" />
        </mxCell>
        <mxCell id="yNVoWuhnCR1HmCepwcBa-55" value="" style="verticalLabelPosition=bottom;shadow=0;dashed=0;align=center;html=1;verticalAlign=top;strokeWidth=1;shape=mxgraph.mockup.markup.line;strokeColor=#999999;rounded=0;labelBackgroundColor=none;fillColor=#ffffff;fontFamily=Verdana;fontSize=12;fontColor=#000000;" vertex="1" parent="yNVoWuhnCR1HmCepwcBa-53">
          <mxGeometry y="145" width="270" height="20" as="geometry" />
        </mxCell>
        <mxCell id="yNVoWuhnCR1HmCepwcBa-56" value="Beschreibung" style="text;whiteSpace=wrap;html=1;" vertex="1" parent="yNVoWuhnCR1HmCepwcBa-53">
          <mxGeometry x="90" y="165" width="90" height="30" as="geometry" />
        </mxCell>
        <mxCell id="yNVoWuhnCR1HmCepwcBa-57" value="" style="group" vertex="1" connectable="0" parent="yNVoWuhnCR1HmCepwcBa-52">
          <mxGeometry x="290" width="270" height="200" as="geometry" />
        </mxCell>
        <mxCell id="yNVoWuhnCR1HmCepwcBa-58" value="Gruppe" style="strokeWidth=1;shadow=0;dashed=0;align=center;html=1;shape=mxgraph.mockup.buttons.button;strokeColor=#666666;mainText=;buttonStyle=round;fontSize=17;fontStyle=0;fillColor=none;whiteSpace=wrap;rounded=0;labelBackgroundColor=none;" vertex="1" parent="yNVoWuhnCR1HmCepwcBa-57">
          <mxGeometry width="270" height="200" as="geometry" />
        </mxCell>
        <mxCell id="yNVoWuhnCR1HmCepwcBa-59" value="" style="verticalLabelPosition=bottom;shadow=0;dashed=0;align=center;html=1;verticalAlign=top;strokeWidth=1;shape=mxgraph.mockup.markup.line;strokeColor=#999999;rounded=0;labelBackgroundColor=none;fillColor=#ffffff;fontFamily=Verdana;fontSize=12;fontColor=#000000;" vertex="1" parent="yNVoWuhnCR1HmCepwcBa-57">
          <mxGeometry y="145" width="270" height="20" as="geometry" />
        </mxCell>
        <mxCell id="yNVoWuhnCR1HmCepwcBa-60" value="Beschreibung" style="text;whiteSpace=wrap;html=1;" vertex="1" parent="yNVoWuhnCR1HmCepwcBa-57">
          <mxGeometry x="90" y="165" width="90" height="30" as="geometry" />
        </mxCell>
        <mxCell id="yNVoWuhnCR1HmCepwcBa-61" value="" style="group" vertex="1" connectable="0" parent="yNVoWuhnCR1HmCepwcBa-52">
          <mxGeometry width="270" height="200" as="geometry" />
        </mxCell>
        <mxCell id="yNVoWuhnCR1HmCepwcBa-62" value="Gruppe" style="strokeWidth=1;shadow=0;dashed=0;align=center;html=1;shape=mxgraph.mockup.buttons.button;strokeColor=#666666;mainText=;buttonStyle=round;fontSize=17;fontStyle=0;fillColor=none;whiteSpace=wrap;rounded=0;labelBackgroundColor=none;" vertex="1" parent="yNVoWuhnCR1HmCepwcBa-61">
          <mxGeometry width="270" height="200" as="geometry" />
        </mxCell>
        <mxCell id="yNVoWuhnCR1HmCepwcBa-63" value="" style="verticalLabelPosition=bottom;shadow=0;dashed=0;align=center;html=1;verticalAlign=top;strokeWidth=1;shape=mxgraph.mockup.markup.line;strokeColor=#999999;rounded=0;labelBackgroundColor=none;fillColor=#ffffff;fontFamily=Verdana;fontSize=12;fontColor=#000000;" vertex="1" parent="yNVoWuhnCR1HmCepwcBa-61">
          <mxGeometry y="145" width="270" height="20" as="geometry" />
        </mxCell>
        <mxCell id="yNVoWuhnCR1HmCepwcBa-64" value="Beschreibung" style="text;whiteSpace=wrap;html=1;" vertex="1" parent="yNVoWuhnCR1HmCepwcBa-61">
          <mxGeometry x="90" y="165" width="90" height="30" as="geometry" />
        </mxCell>
        <mxCell id="yNVoWuhnCR1HmCepwcBa-65" value="" style="group" vertex="1" connectable="0" parent="yNVoWuhnCR1HmCepwcBa-46">
          <mxGeometry x="160" y="585" width="850" height="200" as="geometry" />
        </mxCell>
        <mxCell id="yNVoWuhnCR1HmCepwcBa-66" value="" style="group" vertex="1" connectable="0" parent="yNVoWuhnCR1HmCepwcBa-65">
          <mxGeometry x="580" width="270" height="200" as="geometry" />
        </mxCell>
        <mxCell id="yNVoWuhnCR1HmCepwcBa-67" value="Gruppe" style="strokeWidth=1;shadow=0;dashed=0;align=center;html=1;shape=mxgraph.mockup.buttons.button;strokeColor=#666666;mainText=;buttonStyle=round;fontSize=17;fontStyle=0;fillColor=none;whiteSpace=wrap;rounded=0;labelBackgroundColor=none;" vertex="1" parent="yNVoWuhnCR1HmCepwcBa-66">
          <mxGeometry width="270" height="200" as="geometry" />
        </mxCell>
        <mxCell id="yNVoWuhnCR1HmCepwcBa-68" value="" style="verticalLabelPosition=bottom;shadow=0;dashed=0;align=center;html=1;verticalAlign=top;strokeWidth=1;shape=mxgraph.mockup.markup.line;strokeColor=#999999;rounded=0;labelBackgroundColor=none;fillColor=#ffffff;fontFamily=Verdana;fontSize=12;fontColor=#000000;" vertex="1" parent="yNVoWuhnCR1HmCepwcBa-66">
          <mxGeometry y="145" width="270" height="20" as="geometry" />
        </mxCell>
        <mxCell id="yNVoWuhnCR1HmCepwcBa-69" value="Beschreibung" style="text;whiteSpace=wrap;html=1;" vertex="1" parent="yNVoWuhnCR1HmCepwcBa-66">
          <mxGeometry x="90" y="165" width="90" height="30" as="geometry" />
        </mxCell>
        <mxCell id="yNVoWuhnCR1HmCepwcBa-70" value="" style="group" vertex="1" connectable="0" parent="yNVoWuhnCR1HmCepwcBa-65">
          <mxGeometry x="290" width="270" height="200" as="geometry" />
        </mxCell>
        <mxCell id="yNVoWuhnCR1HmCepwcBa-71" value="Gruppe" style="strokeWidth=1;shadow=0;dashed=0;align=center;html=1;shape=mxgraph.mockup.buttons.button;strokeColor=#666666;mainText=;buttonStyle=round;fontSize=17;fontStyle=0;fillColor=none;whiteSpace=wrap;rounded=0;labelBackgroundColor=none;" vertex="1" parent="yNVoWuhnCR1HmCepwcBa-70">
          <mxGeometry width="270" height="200" as="geometry" />
        </mxCell>
        <mxCell id="yNVoWuhnCR1HmCepwcBa-72" value="" style="verticalLabelPosition=bottom;shadow=0;dashed=0;align=center;html=1;verticalAlign=top;strokeWidth=1;shape=mxgraph.mockup.markup.line;strokeColor=#999999;rounded=0;labelBackgroundColor=none;fillColor=#ffffff;fontFamily=Verdana;fontSize=12;fontColor=#000000;" vertex="1" parent="yNVoWuhnCR1HmCepwcBa-70">
          <mxGeometry y="145" width="270" height="20" as="geometry" />
        </mxCell>
        <mxCell id="yNVoWuhnCR1HmCepwcBa-73" value="Beschreibung" style="text;whiteSpace=wrap;html=1;" vertex="1" parent="yNVoWuhnCR1HmCepwcBa-70">
          <mxGeometry x="90" y="165" width="90" height="30" as="geometry" />
        </mxCell>
        <mxCell id="yNVoWuhnCR1HmCepwcBa-74" value="" style="group" vertex="1" connectable="0" parent="yNVoWuhnCR1HmCepwcBa-65">
          <mxGeometry width="270" height="200" as="geometry" />
        </mxCell>
        <mxCell id="yNVoWuhnCR1HmCepwcBa-75" value="Gruppe" style="strokeWidth=1;shadow=0;dashed=0;align=center;html=1;shape=mxgraph.mockup.buttons.button;strokeColor=#666666;mainText=;buttonStyle=round;fontSize=17;fontStyle=0;fillColor=none;whiteSpace=wrap;rounded=0;labelBackgroundColor=none;" vertex="1" parent="yNVoWuhnCR1HmCepwcBa-74">
          <mxGeometry width="270" height="200" as="geometry" />
        </mxCell>
        <mxCell id="yNVoWuhnCR1HmCepwcBa-76" value="" style="verticalLabelPosition=bottom;shadow=0;dashed=0;align=center;html=1;verticalAlign=top;strokeWidth=1;shape=mxgraph.mockup.markup.line;strokeColor=#999999;rounded=0;labelBackgroundColor=none;fillColor=#ffffff;fontFamily=Verdana;fontSize=12;fontColor=#000000;" vertex="1" parent="yNVoWuhnCR1HmCepwcBa-74">
          <mxGeometry y="145" width="270" height="20" as="geometry" />
        </mxCell>
        <mxCell id="yNVoWuhnCR1HmCepwcBa-77" value="Beschreibung" style="text;whiteSpace=wrap;html=1;" vertex="1" parent="yNVoWuhnCR1HmCepwcBa-74">
          <mxGeometry x="90" y="165" width="90" height="30" as="geometry" />
        </mxCell>
        <mxCell id="yNVoWuhnCR1HmCepwcBa-78" value="" style="group" vertex="1" connectable="0" parent="yNVoWuhnCR1HmCepwcBa-46">
          <mxGeometry x="160" y="805" width="850" height="200" as="geometry" />
        </mxCell>
        <mxCell id="yNVoWuhnCR1HmCepwcBa-79" value="" style="group" vertex="1" connectable="0" parent="yNVoWuhnCR1HmCepwcBa-78">
          <mxGeometry x="580" width="270" height="200" as="geometry" />
        </mxCell>
        <mxCell id="yNVoWuhnCR1HmCepwcBa-80" value="Gruppe" style="strokeWidth=1;shadow=0;dashed=0;align=center;html=1;shape=mxgraph.mockup.buttons.button;strokeColor=#666666;mainText=;buttonStyle=round;fontSize=17;fontStyle=0;fillColor=none;whiteSpace=wrap;rounded=0;labelBackgroundColor=none;" vertex="1" parent="yNVoWuhnCR1HmCepwcBa-79">
          <mxGeometry width="270" height="200" as="geometry" />
        </mxCell>
        <mxCell id="yNVoWuhnCR1HmCepwcBa-81" value="" style="verticalLabelPosition=bottom;shadow=0;dashed=0;align=center;html=1;verticalAlign=top;strokeWidth=1;shape=mxgraph.mockup.markup.line;strokeColor=#999999;rounded=0;labelBackgroundColor=none;fillColor=#ffffff;fontFamily=Verdana;fontSize=12;fontColor=#000000;" vertex="1" parent="yNVoWuhnCR1HmCepwcBa-79">
          <mxGeometry y="145" width="270" height="20" as="geometry" />
        </mxCell>
        <mxCell id="yNVoWuhnCR1HmCepwcBa-82" value="Beschreibung" style="text;whiteSpace=wrap;html=1;" vertex="1" parent="yNVoWuhnCR1HmCepwcBa-79">
          <mxGeometry x="90" y="165" width="90" height="30" as="geometry" />
        </mxCell>
        <mxCell id="yNVoWuhnCR1HmCepwcBa-83" value="" style="group" vertex="1" connectable="0" parent="yNVoWuhnCR1HmCepwcBa-78">
          <mxGeometry x="290" width="270" height="200" as="geometry" />
        </mxCell>
        <mxCell id="yNVoWuhnCR1HmCepwcBa-84" value="Gruppe" style="strokeWidth=1;shadow=0;dashed=0;align=center;html=1;shape=mxgraph.mockup.buttons.button;strokeColor=#666666;mainText=;buttonStyle=round;fontSize=17;fontStyle=0;fillColor=none;whiteSpace=wrap;rounded=0;labelBackgroundColor=none;" vertex="1" parent="yNVoWuhnCR1HmCepwcBa-83">
          <mxGeometry width="270" height="200" as="geometry" />
        </mxCell>
        <mxCell id="yNVoWuhnCR1HmCepwcBa-85" value="" style="verticalLabelPosition=bottom;shadow=0;dashed=0;align=center;html=1;verticalAlign=top;strokeWidth=1;shape=mxgraph.mockup.markup.line;strokeColor=#999999;rounded=0;labelBackgroundColor=none;fillColor=#ffffff;fontFamily=Verdana;fontSize=12;fontColor=#000000;" vertex="1" parent="yNVoWuhnCR1HmCepwcBa-83">
          <mxGeometry y="145" width="270" height="20" as="geometry" />
        </mxCell>
        <mxCell id="yNVoWuhnCR1HmCepwcBa-86" value="Beschreibung" style="text;whiteSpace=wrap;html=1;" vertex="1" parent="yNVoWuhnCR1HmCepwcBa-83">
          <mxGeometry x="90" y="165" width="90" height="30" as="geometry" />
        </mxCell>
        <mxCell id="yNVoWuhnCR1HmCepwcBa-87" value="" style="group" vertex="1" connectable="0" parent="yNVoWuhnCR1HmCepwcBa-78">
          <mxGeometry width="270" height="200" as="geometry" />
        </mxCell>
        <mxCell id="yNVoWuhnCR1HmCepwcBa-88" value="Gruppe" style="strokeWidth=1;shadow=0;dashed=0;align=center;html=1;shape=mxgraph.mockup.buttons.button;strokeColor=#666666;mainText=;buttonStyle=round;fontSize=17;fontStyle=0;fillColor=none;whiteSpace=wrap;rounded=0;labelBackgroundColor=none;" vertex="1" parent="yNVoWuhnCR1HmCepwcBa-87">
          <mxGeometry width="270" height="200" as="geometry" />
        </mxCell>
        <mxCell id="yNVoWuhnCR1HmCepwcBa-89" value="" style="verticalLabelPosition=bottom;shadow=0;dashed=0;align=center;html=1;verticalAlign=top;strokeWidth=1;shape=mxgraph.mockup.markup.line;strokeColor=#999999;rounded=0;labelBackgroundColor=none;fillColor=#ffffff;fontFamily=Verdana;fontSize=12;fontColor=#000000;" vertex="1" parent="yNVoWuhnCR1HmCepwcBa-87">
          <mxGeometry y="145" width="270" height="20" as="geometry" />
        </mxCell>
        <mxCell id="yNVoWuhnCR1HmCepwcBa-90" value="Beschreibung" style="text;whiteSpace=wrap;html=1;" vertex="1" parent="yNVoWuhnCR1HmCepwcBa-87">
          <mxGeometry x="90" y="165" width="90" height="30" as="geometry" />
        </mxCell>
        <mxCell id="yNVoWuhnCR1HmCepwcBa-182" value="Copyright PfadiMH" style="text;html=1;align=center;verticalAlign=middle;whiteSpace=wrap;rounded=0;" vertex="1" parent="yNVoWuhnCR1HmCepwcBa-46">
          <mxGeometry x="512.5" y="1050" width="145" height="30" as="geometry" />
        </mxCell>
        <mxCell id="yNVoWuhnCR1HmCepwcBa-190" value="Logo" style="ellipse;whiteSpace=wrap;html=1;aspect=fixed;" vertex="1" parent="yNVoWuhnCR1HmCepwcBa-46">
          <mxGeometry x="575" y="120" width="40" height="40" as="geometry" />
        </mxCell>
        <mxCell id="yNVoWuhnCR1HmCepwcBa-191" value="Home" style="text;html=1;align=center;verticalAlign=middle;whiteSpace=wrap;rounded=0;" vertex="1" parent="yNVoWuhnCR1HmCepwcBa-46">
          <mxGeometry x="510" y="125" width="60" height="30" as="geometry" />
        </mxCell>
        <mxCell id="yNVoWuhnCR1HmCepwcBa-192" value="Gruppenübersicht" style="text;html=1;align=center;verticalAlign=middle;whiteSpace=wrap;rounded=0;" vertex="1" parent="yNVoWuhnCR1HmCepwcBa-46">
          <mxGeometry x="650" y="125" width="60" height="30" as="geometry" />
        </mxCell>
      </root>
    </mxGraphModel>
  </diagram>
</mxfile>
